<?xml version="1.0" encoding="UTF-8"?><svg id="b" xmlns="http://www.w3.org/2000/svg" viewBox="0 0 143.32 33.09"><g id="c"><g id="d"><g><g><rect x="11.29" y="1.93" width="9.55" height="9.55" rx=".12" ry=".12" transform="translate(-.03 13.32) rotate(-45)" style="fill:#2690ff;"/><rect x="11.28" y="20.7" width="9.55" height="9.55" rx=".13" ry=".13" transform="translate(-13.31 18.82) rotate(-45)" style="fill:#2690ff;"/><path d="m6.74,9.43s-.1-.05-.15,0L.03,16.03s-.05.09-.02.13l.02.02,6.57,6.57s.1.02.15,0l6.57-6.57s.05-.12,0-.17h0l-6.57-6.57h0Zm4.27,6.74l-4.27,4.24s-.1.05-.15,0l-4.27-4.24s-.02-.1,0-.15l4.27-4.29s.1-.02.15,0l4.27,4.27s.05.12,0,.17h0Z" style="fill:#91cdff;"/><path d="m25.53,9.43s-.1-.02-.15,0l-6.57,6.6s-.05.09-.02.13l.02.02,6.57,6.55s.12.05.15,0l6.57-6.55s.05-.12,0-.17h0l-6.57-6.57h0Zm4.26,6.74l-4.27,4.24s-.1.05-.15,0l-4.27-4.24s-.03-.1,0-.15l4.27-4.27s.12-.05.15,0l4.27,4.24s.05.12,0,.17h0Z" style="fill:#91cdff;"/></g><g><path d="m104.57,10.36l-.08.31c-.75,3.29-1.51,6.17-2.31,8.78-.8,2.75-1.76,5.44-2.87,8.09-.35.87-.77,1.71-1.25,2.52-.4.64-.88,1.22-1.45,1.73-.55.45-1.19.79-1.87.98-.8.23-1.64.34-2.47.32-.5,0-1-.06-1.48-.19l-.54-.16h-.29l.41-1.82.29.11c.1.03.23.08.42.13.96.24,1.96.24,2.91,0,.49-.13.94-.36,1.34-.68.41-.35.77-.76,1.06-1.21.34-.57.63-1.17.86-1.79l.03-.06-.05-.1c-.73-1.39-1.4-2.74-2-4.03-.67-1.42-1.29-2.87-1.84-4.29-.5-1.24-1.01-2.66-1.58-4.36-.44-1.34-.81-2.63-1.16-3.94l-.08-.32h2.21l.05.19c.26,1.07.54,2.1.86,3.15.29.9.75,2.28,1.25,3.68.52,1.42,1.04,2.74,1.53,3.91.44,1.07.99,2.23,1.61,3.53l.24.45.16-.48c.42-1.23.8-2.32,1.12-3.32.42-1.44.75-2.53,1.03-3.55l.38-1.42c.18-.69.36-1.44.55-2.18l.13-.6c.28-1.16.5-2.16.72-3.15l.03-.21h2.12v-.02Z" style="fill:#f2f3f4; isolation:isolate; opacity:.94;"/><g style="opacity:.94;"><path d="m143.32,26.45l-.23.09c-.48.21-.99.38-1.5.5-.89.26-1.8.38-2.73.38-.98.03-1.96-.1-2.9-.39-.71-.22-1.35-.63-1.86-1.18-.5-.58-.84-1.28-.98-2.03-.22-.95-.32-1.92-.31-2.89V5.67l2.19-.33v15.77c-.02.79.08,1.57.29,2.33.15.54.42,1.04.81,1.45.37.32.8.54,1.27.65.54.1,1.08.15,1.63.16.82.03,1.65-.08,2.44-.31.42-.14.74-.27.97-.36l.34-.14.13.28.44,1.29h0Z" style="fill:#f2f3f4;"/></g><rect x="136.6" y="10.76" width="5.35" height="1.75" style="fill:#f2f3f4; isolation:isolate; opacity:.94;"/><polygon points="44.31 24.96 44.31 16.73 55.77 16.73 55.77 14.72 44.31 14.72 44.31 7.07 56.85 7.07 56.85 5 41.98 5 41.98 27.03 57.22 27.03 57.22 24.96 44.31 24.96" style="fill:#f2f3f4;"/><path d="m122.22,17.49c-.8-.99-1.93-1.67-3.18-1.92.96-.35,1.8-.97,2.41-1.79.62-.83.94-1.84.92-2.87,0-.98-.25-1.95-.74-2.79-.49-.83-1.21-1.49-2.08-1.92-.63-.36-1.31-.59-2.03-.69-1.04-.15-2.1-.22-3.15-.21h-7.67v21.84h6.41c2.05,0,3.59-.05,4.54-.13.72-.02,1.44-.15,2.13-.38,1.09-.38,2.02-1.1,2.67-2.05.67-.99,1.01-2.16.97-3.36.04-1.34-.39-2.65-1.21-3.72h0Zm-13.3-10.34h5.08c1.65-.14,3.3.16,4.79.87.93.7,1.44,1.84,1.33,3,.11,1.18-.42,2.34-1.38,3.03-1.53.72-3.23,1.03-4.92.9h-4.9v-7.79h0Zm10.92,17.14c-1.46.75-3.1,1.08-4.74.95h-6.18v-8.56h6.33c1.56-.1,3.11.29,4.44,1.13,1.01.79,1.56,2.03,1.49,3.31.11,1.22-.39,2.41-1.33,3.18h-.01Z" style="fill:#f2f3f4;"/><path d="m74.66,25.62h-.41c-.35.04-.71-.05-1-.26-.18-.15-.26-.59-.26-1.28v-9.26c.08-1.46-.52-2.88-1.64-3.82-1.42-.96-3.11-1.42-4.82-1.31-1.81-.1-3.6.42-5.08,1.49-1.24.95-1.96,2.43-1.95,4h2.03c-.02-1.09.49-2.13,1.36-2.79,1.08-.71,2.36-1.04,3.64-.95,1.18-.1,2.37.2,3.36.85.74.74,1.12,1.77,1.03,2.82,0,1.08-.85,1.77-2.54,2.1-.19.02-.38.06-.56.1-.26.03-.62.05-1.1.08-1.79.06-3.56.38-5.26.95-.84.37-1.57.96-2.1,1.72-1.22,1.98-.85,4.55.87,6.1,1.21.95,2.72,1.42,4.26,1.33,1.21.01,2.41-.23,3.51-.72,1.14-.52,2.16-1.25,3.03-2.15v.26c-.04.65.18,1.29.62,1.77.54.43,1.21.64,1.9.59.21,0,.44-.03.69-.05.26-.03.51-.08.77-.13v-1.46c-.11.02-.22.03-.33.03h-.02Zm-3.79-5.09c.07,1.46-.55,2.86-1.67,3.79-1.27.98-2.86,1.47-4.46,1.38-1.04.06-2.07-.24-2.92-.85-.7-.56-1.1-1.41-1.08-2.31,0-.85.36-1.65,1-2.21.86-.69,1.87-1.16,2.95-1.38,1.9-.1,3.26-.21,4.1-.33.71-.07,1.41-.23,2.08-.46v2.36h0Z" style="fill:#f2f3f4; isolation:isolate; opacity:.94;"/><path d="m88.46,19.67c-1.24-.92-2.68-1.54-4.2-1.79-.21-.03-.51-.1-.95-.21-3.2-.72-4.82-1.82-4.82-3.33,0-.84.41-1.63,1.1-2.1.84-.57,1.85-.85,2.87-.79,1.18-.07,2.34.27,3.31.95.81.66,1.3,1.65,1.33,2.69h2.08c-.05-1.54-.76-2.98-1.95-3.95-1.36-1.02-3.03-1.52-4.72-1.44-1.58-.07-3.14.41-4.41,1.36-1.1.85-1.72,2.17-1.69,3.56-.05,1.13.44,2.21,1.31,2.92,1.55.98,3.27,1.63,5.08,1.92.03,0,.05.01.08.03,3.13.72,4.69,1.77,4.69,3.13.02.93-.46,1.8-1.26,2.28-1.06.6-2.27.88-3.49.82-1.21.05-2.4-.33-3.36-1.08-.85-.7-1.36-1.74-1.38-2.85h-2.03c-.01,1.6.69,3.13,1.92,4.15,1.41,1.1,3.16,1.65,4.95,1.56,1.72.09,3.43-.38,4.87-1.33,1.16-.79,1.86-2.11,1.85-3.51.07-1.12-.36-2.22-1.18-3h0Z" style="fill:#f2f3f4; isolation:isolate; opacity:.94;"/><rect x="126.99" y="11.07" width="2.07" height="16.08" style="fill:#f2f3f4;"/><path d="m126.98,11.06v16.08h2.08V11.06s-2.08,0-2.08,0Z" style="fill:#f2f3f4;"/><ellipse cx="128.02" cy="6.88" rx="1.53" ry="1.54" style="fill:#f2f3f4;"/></g></g></g></g></svg>