<svg viewBox="0 0 141.49632 34.85220588235294" xmlns="http://www.w3.org/2000/svg" data-name="Layer 2" id="Layer_2" style="max-height: 500px" width="141.49632" height="34.85220588235294">
  <defs>
    <style>
      .cls-1 {
        fill: #5e6e80;
      }

      .cls-2 {
        fill: #1d82f0;
      }

      .cls-3 {
        fill: #98a6c2;
      }

      .cls-4 {
        fill: #2085f5;
      }

      .cls-5 {
        fill: #78baff;
      }
    </style>
  </defs>
  <g data-name="Layer 2" id="Layer_2-2">
    <g>
      <polygon points="44.26 25.55 44.26 18.08 55.31 18.08 55.31 15.46 44.26 15.46 44.26 8.57 56.35 8.57 56.35 5.88 41.36 5.88 41.36 28.24 56.71 28.24 56.71 25.55 44.26 25.55" class="cls-1"/>
      <path d="M120.44,18.06c-.65-.8-1.5-1.4-2.52-1.77.72-.4,1.31-.91,1.76-1.52.65-.88.98-1.9.98-3.06,0-1.07-.27-2.06-.8-2.93-.53-.87-1.27-1.56-2.2-2.05-.6-.33-1.32-.57-2.14-.72-.8-.14-1.89-.21-3.24-.21h-8.05v22.35h6.79c2.1,0,3.65-.04,4.6-.11.98-.08,1.72-.21,2.21-.4,1.21-.45,2.18-1.18,2.87-2.18s1.04-2.18,1.04-3.51c0-1.54-.43-2.85-1.29-3.91ZM116.49,14.57c-.87.55-2.48.84-4.79.84h-4.59v-7.07h4.79c2.25,0,3.81.28,4.64.82.78.51,1.18,1.42,1.18,2.69s-.41,2.2-1.23,2.72ZM118.77,21.88c0,1.37-.4,2.34-1.19,2.89-.83.58-2.38.87-4.6.87h-5.88v-7.81h6.05c1.88,0,3.32.35,4.25,1.04.9.66,1.36,1.68,1.36,3.01Z" class="cls-1"/>
      <path d="M100,11.47c-.21.96-.43,1.95-.7,3.12l-.12.57c-.18.74-.38,1.49-.54,2.15l-.36,1.39c-.27,1.01-.59,2.09-1,3.48-.31.96-.67,2.03-.99,3-.54-1.13-1.05-2.22-1.45-3.2-.49-1.18-.99-2.47-1.49-3.84-.5-1.38-.94-2.73-1.22-3.62-.31-1.02-.58-2.03-.83-3.08l-.1-.46h-2.88l.19.74c.33,1.29.7,2.58,1.13,3.92.55,1.67,1.06,3.08,1.55,4.3.54,1.42,1.15,2.86,1.81,4.26.57,1.25,1.22,2.58,1.94,3.95-.25.65-.52,1.2-.79,1.63-.29.45-.63.83-.97,1.12-.34.29-.74.49-1.17.6-.87.23-1.87.23-2.68,0-.14-.03-.26-.07-.39-.11l-.65-.25-.58,2.59h.65l.49.14c.48.14.99.21,1.54.21.94,0,1.82-.11,2.53-.33.74-.23,1.4-.58,1.95-1.05.54-.46,1.03-1.06,1.47-1.77.41-.66.83-1.51,1.26-2.53,1.03-2.46,1.97-5.15,2.81-8.01.79-2.6,1.53-5.44,2.27-8.68l.16-.73h-2.75l-.1.47Z" class="cls-1"/>
      <path d="M125.54,5.9c-.5,0-.95.18-1.24.49-.37.34-.55.76-.55,1.31s.17.97.51,1.28c.35.32.81.5,1.29.5s.95-.18,1.31-.51c.32-.32.48-.74.48-1.26,0-.55-.17-.97-.52-1.29-.37-.34-.79-.5-1.29-.5Z" class="cls-1"/>
      <rect height="16.47" width="2.72" y="11.68" x="124.2" class="cls-1"/>
      <path d="M140.4,25.77l-.29-.6-.62.26c-.22.09-.52.22-.94.36-.56.19-1.31.29-2.29.29-.49,0-1.03-.05-1.53-.15-.41-.09-.77-.28-1.1-.56-.31-.31-.57-.77-.72-1.3-.17-.55-.26-1.31-.26-2.2V5.9l-2.57.39-.25.03v15.36c0,1.08.1,2.07.3,2.92.17.81.52,1.54,1.05,2.15.53.59,1.18,1.01,1.97,1.26.81.27,1.78.41,2.97.41,1,0,1.94-.13,2.78-.38.72-.2,1.2-.36,1.54-.51l.48-.22-.51-1.52Z" class="cls-1"/>
      <rect height="2.35" width="5.66" y="11" x="133.63" class="cls-1"/>
      <path d="M73.33,25.96c-.11,0-.23,0-.38,0-.52,0-.68-.11-.73-.15,0,0-.15-.16-.15-1.02v-9.04c0-1.75-.59-3.1-1.74-4.02-1.13-.9-2.79-1.35-4.93-1.35s-3.89.51-5.18,1.52c-1.31,1.02-1.99,2.43-2.04,4.19v.36s2.39.02,2.39.02l.27-.07.02-.27c.06-1.1.46-1.93,1.19-2.48.76-.57,1.88-.86,3.35-.86s2.47.25,3.06.75c.58.48.87,1.32.87,2.49,0,.84-.73,1.41-2.18,1.69-.24.04-.44.08-.54.11-.24.02-.59.05-1.05.08-2.43.18-4.21.5-5.27.96-.96.43-1.7,1.03-2.2,1.79-.51.76-.77,1.66-.77,2.67,0,1.56.56,2.82,1.68,3.76,1.1.92,2.58,1.39,4.4,1.39,1.27,0,2.47-.25,3.57-.73.88-.39,1.72-.94,2.5-1.64.08.6.32,1.08.69,1.44.48.45,1.18.67,2.09.67.21,0,.45-.01.72-.04.26-.03.53-.07.84-.13l.22-.05v-2.11l-.38.03c-.12.01-.23.02-.33.02ZM69.3,19.53v1.81c0,1.45-.51,2.61-1.51,3.44-1.02.85-2.42,1.28-4.15,1.28-1.11,0-2-.26-2.63-.76-.61-.49-.92-1.16-.92-1.98,0-.72.29-1.35.86-1.87.6-.55,1.52-.98,2.67-1.28,1.84-.09,3.19-.2,4.04-.31.62-.09,1.17-.19,1.64-.32Z" class="cls-1"/>
      <path d="M87.02,20.23h0c-.81-.73-2.25-1.35-4.28-1.83-.19-.04-.48-.1-.92-.2-2.94-.66-4.44-1.65-4.44-2.93,0-.73.31-1.33.91-1.77.64-.47,1.52-.71,2.62-.71,1.27,0,2.27.29,3,.87.71.56,1.11,1.36,1.19,2.44l.02.26h2.74l-.03-.38c-.13-1.75-.81-3.13-2.03-4.12-1.21-.98-2.84-1.47-4.85-1.47-1.84,0-3.36.47-4.52,1.41-1.18.95-1.78,2.21-1.78,3.74,0,1.33.47,2.39,1.39,3.14.88.72,2.6,1.38,5.19,1.97,2.83.65,4.32,1.59,4.32,2.72,0,.8-.36,1.45-1.08,1.92-.77.5-1.85.76-3.21.76-1.24,0-2.27-.33-3.05-.99-.77-.64-1.18-1.49-1.23-2.59v-.27h-2.72v.37c.07,1.8.75,3.26,2.04,4.34,1.27,1.07,2.97,1.61,5.06,1.61s3.71-.47,4.98-1.39c1.3-.95,1.96-2.2,1.96-3.71,0-1.36-.43-2.43-1.27-3.19Z" class="cls-1"/>
      <rect height="27.79" width="1.68" y="2.56" x="147.97" class="cls-2"/>
      <g>
        <rect transform="translate(9.92 -9.58) rotate(45)" ry=".05" rx=".05" height="10.2" width="10.2" y="2.09" x="11.43" class="cls-4"/>
        <path d="M33.03,16.48l-7.14-7.14s-.05-.02-.07,0l-7.15,7.15s-.02.05,0,.07l7.14,7.14s.05.02.07,0l7.15-7.15s.02-.05,0-.07ZM21.59,16.5l4.24-4.24s.04-.01.05,0l4.23,4.23s.01.04,0,.05l-4.24,4.24s-.04.01-.05,0l-4.23-4.23s-.01-.04,0-.05Z" class="cls-5"/>
        <rect transform="translate(9.93 55.81) rotate(-135)" ry=".05" rx=".05" height="10.2" width="10.2" y="20.75" x="11.42" class="cls-4"/>
        <path d="M14.37,16.48l-7.14-7.14s-.05-.02-.07,0L.01,16.49s-.02.05,0,.07l7.14,7.14s.05.02.07,0l7.15-7.15s.02-.05,0-.07ZM2.93,16.5l4.24-4.24s.04-.01.05,0l4.23,4.23s.01.04,0,.05l-4.24,4.24s-.04.01-.05,0l-4.23-4.23s-.01-.04,0-.05Z" class="cls-5"/>
      </g>
      <g>
        <path d="M163.6,27.61l-.13-.28-.29.12c-.11.05-.24.11-.44.17-.26.1-.62.14-1.08.14-.22,0-.48-.02-.72-.07-.2-.05-.36-.14-.52-.27-.15-.15-.27-.37-.34-.63-.08-.27-.12-.64-.12-1.07v-3.88h3.1v-1.16h-3.1v-2.7l-1.31.21v7.43c0,.53.05,1,.14,1.41.08.39.24.74.49,1.04.25.29.55.49.93.61.38.13.83.2,1.39.2.47,0,.91-.06,1.31-.18.34-.1.57-.18.73-.25l.21-.1-.24-.73Z" class="cls-3"/>
        <g>
          <polygon points="168.45 14.48 170.81 11.39 173.18 14.48 174.87 14.48 171.61 10.43 174.54 6.61 172.92 6.61 170.79 9.5 168.63 6.61 166.96 6.61 169.97 10.45 166.83 14.48 168.45 14.48" class="cls-3"/>
          <path d="M181.03,11.68c-.1.59-.35,1.06-.76,1.4-.41.34-.94.51-1.56.51-.81,0-1.44-.27-1.92-.81-.48-.55-.72-1.3-.72-2.25s.24-1.67.71-2.2c.47-.53,1.1-.79,1.91-.79.61,0,1.13.16,1.54.46.41.31.65.7.72,1.21l.02.14h1.27v-.18c-.06-.82-.42-1.49-1.08-2-.65-.49-1.48-.75-2.47-.75-1.22,0-2.2.38-2.91,1.12-.71.74-1.07,1.77-1.07,3.05s.35,2.24,1.05,2.97c.7.73,1.66,1.1,2.86,1.1,1.05,0,1.92-.26,2.58-.78.67-.52,1.06-1.25,1.15-2.16l.02-.19h-1.32l-.02.14Z" class="cls-3"/>
          <path d="M188.63,7.97c.27.28.41.88.41,1.77v4.74h1.34v-4.75c0-.7-.03-1.18-.08-1.45-.06-.28-.16-.52-.29-.72-.25-.35-.62-.64-1.1-.84-.47-.2-1.01-.3-1.59-.3-.64,0-1.21.12-1.71.36-.35.17-.67.41-.94.7v-3.77h-1.34v10.77h1.34v-4.61c0-.72.22-1.27.66-1.69.44-.42,1.05-.63,1.8-.63s1.24.14,1.51.43Z" class="cls-3"/>
          <path d="M197.5,13.58c.04.28.16.5.35.67.23.2.58.3,1.03.3.11,0,.22,0,.36-.02.13-.01.26-.03.38-.06l.14-.03v-.97l-.18.02c-.06,0-.11,0-.16,0-.05,0-.11,0-.19,0-.26,0-.35-.05-.37-.07,0,0-.07-.07-.07-.45v-4.11c0-.8-.29-1.42-.87-1.84-.56-.41-1.38-.61-2.43-.61s-1.92.23-2.55.69c-.65.47-.99,1.11-1.01,1.91v.17s1.3,0,1.3,0v-.16c.04-.5.23-.87.6-1.12.38-.26.94-.39,1.67-.39s1.23.12,1.53.34c.28.22.43.6.43,1.12,0,.14,0,.57-1.08.76-.12.02-.22.04-.27.05-.12,0-.29.02-.52.04-1.22.08-2.07.22-2.61.44-.47.19-.84.47-1.09.81-.25.35-.38.76-.38,1.22,0,.71.28,1.29.83,1.72.54.42,1.27.63,2.17.63.63,0,1.22-.11,1.76-.33.44-.18.86-.43,1.25-.76ZM197.42,10.59v.82c0,.66-.24,1.17-.74,1.56-.51.39-1.2.58-2.07.58-.56,0-1-.12-1.31-.35-.3-.22-.45-.51-.45-.89,0-.33.14-.6.42-.84.3-.25.76-.45,1.33-.58.91-.04,1.58-.09,2-.14.31-.04.59-.09.82-.15Z" class="cls-3"/>
          <path d="M201.77,9.87c0-.72.22-1.29.65-1.7.43-.41,1.03-.62,1.78-.62s1.24.14,1.51.42c.27.28.41.84.41,1.68v4.83h1.36v-4.97c0-.58-.03-.99-.08-1.26-.06-.27-.16-.5-.29-.69-.25-.37-.62-.65-1.1-.85-.46-.19-1.01-.29-1.62-.29-.65,0-1.22.12-1.72.37-.35.18-.67.42-.95.72v-.89h-1.3v7.86h1.34v-4.61Z" class="cls-3"/>
          <path d="M212.54,14.68c.67,0,1.28-.13,1.79-.39.38-.19.73-.46,1.03-.79v.44c0,.83-.24,1.46-.72,1.87-.48.42-1.23.63-2.21.63-.69,0-1.23-.12-1.61-.34-.37-.22-.57-.52-.62-.93l-.02-.15h-1.35l.02.18c.06.73.43,1.32,1.09,1.74.64.41,1.48.62,2.51.62,1.37,0,2.43-.31,3.14-.92.72-.62,1.09-1.53,1.09-2.73v-7.31h-1.33v.98c-.29-.33-.62-.59-1-.78-.52-.26-1.12-.39-1.81-.39-1.2,0-2.17.38-2.89,1.12-.71.74-1.07,1.76-1.07,3.01s.36,2.28,1.06,3.02c.71.74,1.68,1.11,2.9,1.11ZM209.97,10.56c0-.98.24-1.73.71-2.25.46-.51,1.14-.77,2.01-.77s1.55.26,2.02.78c.48.52.72,1.28.72,2.24s-.24,1.72-.72,2.24c-.47.52-1.15.79-2.02.79s-1.51-.26-1.99-.8c-.48-.53-.73-1.29-.73-2.24Z" class="cls-3"/>
          <path d="M225.41,12.01l.03-.19h-1.32l-.02.14c-.09.51-.34.9-.75,1.2-.42.3-.95.45-1.59.45-.81,0-1.43-.25-1.91-.76-.45-.49-.69-1.14-.71-1.96h6.4v-.46c0-1.25-.34-2.24-1.01-2.94-.67-.7-1.62-1.06-2.81-1.06s-2.2.37-2.89,1.11c-.69.73-1.04,1.76-1.04,3.05s.35,2.28,1.04,3.01c.69.73,1.65,1.09,2.86,1.09,1.01,0,1.86-.24,2.53-.72.68-.49,1.08-1.14,1.2-1.95ZM221.69,7.52c.73,0,1.32.22,1.75.66.4.41.64.97.71,1.67h-5c.07-.69.32-1.25.75-1.66.46-.45,1.05-.67,1.79-.67Z" class="cls-3"/>
          <polygon points="166.83 13.29 160.06 13.29 160.06 9.63 166.06 9.63 166.06 8.46 160.06 8.46 160.06 5.08 166.63 5.08 166.63 3.89 158.64 3.89 158.64 14.48 166.83 14.48 166.83 13.29" class="cls-3"/>
          <path d="M171.58,21.86c-.26-.36-.64-.64-1.13-.84-.48-.2-1.03-.3-1.64-.3-.66,0-1.25.12-1.76.37-.37.18-.7.42-.98.72v-3.83h-1.37v10.89h1.37v-4.66c0-.73.22-1.29.68-1.71.45-.42,1.08-.64,1.86-.64s1.28.15,1.56.43c.28.29.43.89.43,1.79v4.79h1.37v-4.8c0-.71-.03-1.19-.09-1.47-.06-.28-.16-.53-.3-.73Z" class="cls-3"/>
          <path d="M177.15,20.71c-1.26,0-2.26.38-2.97,1.12-.71.74-1.07,1.78-1.07,3.09s.36,2.31,1.07,3.04c.71.73,1.7,1.1,2.94,1.1,1.04,0,1.91-.25,2.6-.73.7-.49,1.11-1.15,1.23-1.97l.03-.19h-1.36l-.02.14c-.09.52-.35.91-.78,1.21-.43.3-.99.45-1.64.45-.82,0-1.48-.26-1.97-.77-.46-.49-.71-1.16-.73-1.98h6.6v-.46c0-1.26-.35-2.26-1.04-2.97-.69-.71-1.66-1.07-2.89-1.07ZM177.14,21.81c.75,0,1.36.23,1.81.67.42.41.66.98.73,1.69h-5.16c.07-.7.33-1.26.77-1.68.47-.45,1.1-.68,1.86-.68Z" class="cls-3"/>
          <path d="M190,20.71c-1.26,0-2.26.38-2.97,1.12-.71.74-1.07,1.78-1.07,3.09s.36,2.31,1.07,3.04c.71.73,1.7,1.1,2.94,1.1,1.04,0,1.91-.25,2.6-.73.7-.49,1.11-1.15,1.23-1.97l.03-.19h-1.36l-.02.14c-.09.52-.35.91-.78,1.21-.43.3-.98.45-1.64.45-.82,0-1.48-.26-1.97-.77-.46-.49-.71-1.16-.73-1.98h6.6v-.46c0-1.26-.35-2.26-1.04-2.97-.69-.71-1.66-1.07-2.89-1.07ZM189.99,21.81c.75,0,1.36.23,1.81.67.42.41.66.98.73,1.69h-5.16c.08-.7.33-1.26.77-1.68.47-.45,1.1-.68,1.86-.68Z" class="cls-3"/>
          <path d="M202.79,27.87c-.05,0-.12,0-.19,0-.27,0-.36-.05-.39-.07,0,0-.07-.07-.07-.46v-4.15c0-.81-.3-1.43-.89-1.86-.57-.41-1.42-.62-2.5-.62s-1.98.23-2.63.69c-.67.47-1.02,1.12-1.04,1.93v.17s1.33,0,1.33,0v-.16c.04-.51.24-.88.62-1.13.39-.26.97-.4,1.72-.4s1.27.12,1.58.35c.3.22.44.6.44,1.14,0,.38-.38.64-1.12.77-.12.02-.22.04-.28.05-.12,0-.3.02-.54.04-1.26.08-2.13.23-2.68.44-.49.2-.86.47-1.12.82-.26.35-.39.77-.39,1.24,0,.72.29,1.31.86,1.74.56.42,1.31.64,2.23.64.64,0,1.25-.11,1.81-.33.46-.18.89-.44,1.3-.77.04.29.16.52.36.68.24.2.59.3,1.05.3.11,0,.23,0,.36-.02.13-.01.26-.03.4-.06l.14-.03v-.98h-.18c-.06.02-.11.02-.17.02ZM200.74,24.92v.83c0,.67-.25,1.19-.77,1.57-.52.39-1.24.59-2.14.59-.57,0-1.03-.12-1.36-.35-.31-.23-.47-.52-.47-.9,0-.33.14-.61.44-.85.31-.25.78-.45,1.38-.59.96-.04,1.63-.09,2.06-.15.33-.04.61-.09.85-.15Z" class="cls-3"/>
          <path d="M207.77,24.4c-.11-.02-.26-.05-.47-.09-1.51-.3-2.27-.76-2.27-1.34,0-.33.15-.6.46-.81.33-.22.78-.33,1.35-.33.65,0,1.17.14,1.54.4.37.26.56.62.6,1.08v.15h1.39v-.18c-.08-.81-.43-1.45-1.05-1.9-.61-.45-1.44-.67-2.46-.67-.94,0-1.71.22-2.3.64-.6.44-.91,1.02-.91,1.73,0,.62.24,1.11.71,1.45.45.33,1.3.63,2.6.9h.04c1.45.31,2.22.74,2.22,1.25,0,.37-.18.66-.55.88-.4.23-.95.35-1.65.35-.64,0-1.17-.15-1.57-.46-.4-.3-.6-.67-.63-1.15v-.16h-1.36v.17c.04.83.38,1.51,1.04,2,.65.49,1.51.74,2.57.74s1.89-.21,2.53-.64c.66-.44,1-1.01,1-1.72,0-.63-.22-1.13-.65-1.48-.42-.34-1.13-.61-2.18-.84Z" class="cls-3"/>
          <path d="M214.82,27.15l-2.74-6.24h-1.46l3.51,7.87-.38.88c-.22.49-.42.82-.61.97-.18.14-.44.21-.77.21-.06,0-.13,0-.23-.02-.11-.01-.26-.03-.44-.05l-.19-.02v1.11l.13.03c.12.03.24.05.36.07.11.01.25.02.4.02.63,0,1.15-.14,1.54-.41.39-.27.72-.72.98-1.34l4.01-9.33h-1.42l-2.68,6.24Z" class="cls-3"/>
          <polygon points="233.25 20.91 231.12 26.91 229.24 20.91 227.86 20.91 225.95 26.92 223.8 20.91 222.4 20.91 225.3 28.86 226.61 28.86 228.51 22.87 230.42 28.86 231.75 28.86 234.64 20.91 233.25 20.91" class="cls-3"/>
          <path d="M242.75,27.87c-.05,0-.12,0-.19,0-.27,0-.36-.05-.39-.07,0,0-.07-.07-.07-.46v-4.15c0-.81-.3-1.43-.89-1.86-.57-.41-1.42-.62-2.5-.62s-1.98.23-2.63.69c-.67.47-1.02,1.12-1.04,1.93v.17s1.33,0,1.33,0v-.16c.04-.51.24-.88.62-1.13.39-.26.97-.4,1.72-.4s1.27.12,1.58.35c.3.22.44.6.44,1.14,0,.38-.38.64-1.12.77-.12.02-.22.04-.28.05-.12,0-.3.02-.54.04-1.26.08-2.13.23-2.68.44-.49.2-.86.47-1.12.82-.26.35-.39.77-.39,1.24,0,.72.29,1.31.86,1.74.56.42,1.31.64,2.23.64.64,0,1.25-.11,1.81-.33.46-.18.89-.44,1.3-.77.04.29.16.52.36.68.24.2.59.3,1.05.3.11,0,.23,0,.36-.02.13-.01.27-.03.4-.06l.14-.03v-.98h-.18c-.06.02-.11.02-.17.02ZM240.71,24.92v.83c0,.67-.25,1.19-.77,1.57-.52.39-1.24.59-2.14.59-.58,0-1.03-.12-1.36-.35-.31-.23-.47-.52-.47-.9,0-.33.14-.61.44-.85.31-.25.78-.45,1.38-.59.96-.04,1.63-.09,2.06-.15.33-.04.61-.09.85-.15Z" class="cls-3"/>
          <path d="M249.46,20.91l-2.68,6.24-2.74-6.24h-1.46l3.51,7.87-.38.88c-.22.49-.42.82-.61.97-.18.14-.44.21-.77.21-.06,0-.13,0-.23-.02-.11-.01-.26-.03-.44-.05l-.19-.02v1.11l.13.03c.12.03.24.05.36.07.12.01.25.02.4.02.63,0,1.15-.14,1.54-.41.39-.27.72-.72.98-1.34l4.01-9.33h-1.42Z" class="cls-3"/>
        </g>
      </g>
    </g>
  </g>
</svg>